<svg xmlns="http://www.w3.org/2000/svg" viewBox="0 0 266.46 78.54"><defs><style>.cls-1{fill:#9e774d;}</style></defs><g id="Layer_2" data-name="Layer 2"><g id="بِلَک_کافی" data-name="بِلَک کافی"><path class="cls-1" d="M161.25,23.23l-.25-.75a2.48,2.48,0,0,1,.44-2.13c.12-.2.23-.4.33-.61a9.4,9.4,0,0,0,.73-3.26,11.59,11.59,0,0,0-.73-4.15,28.24,28.24,0,0,0-1.57-3.75c-.26-.51-.48-.93-.69-1.31-.72.58-2.5,2.55-.65,7a5.12,5.12,0,0,1,.38,2.87l-.62-.2a4.27,4.27,0,0,0-.37-2.42c-2.44-5.91,1.17-8,1.2-8l.28-.15.16.27c.28.48.56,1,.89,1.66a27.78,27.78,0,0,1,1.61,3.84,12.16,12.16,0,0,1,.76,4.38,9.72,9.72,0,0,1-.79,3.49c-.1.23-.22.45-.34.67-.34.59-.6,1.06-.41,1.59.1.28.2.59.26.77Z"/><path class="cls-1" d="M163.16,16.52l-.65-.06,0-.22a11.48,11.48,0,0,1,.23-1.62,6.92,6.92,0,0,1,1.24-2.3l.3-.43a14.65,14.65,0,0,0,1.54-2.84,10.23,10.23,0,0,0,.5-1.55c-.62-.26-3.17-1.09-5.12,1.93l-.55-.36c1.93-3,4.47-2.62,5.47-2.32a2.94,2.94,0,0,1,.66.25c.2.11.44.31-.35,2.3a15.38,15.38,0,0,1-1.61,3l-.31.44a6.24,6.24,0,0,0-1.13,2.08,9.27,9.27,0,0,0-.22,1.52Z"/><path class="cls-1" d="M139,50a32.34,32.34,0,0,1-3.35-3.74,7.93,7.93,0,0,1-2-4.65,13.34,13.34,0,0,1,.3-2.52c.05-.25.09-.5.13-.75.21-1.25.29-2.26.29-2.27l.65,0s-.08,1.06-.29,2.34c0,.25-.09.5-.13.76a13.13,13.13,0,0,0-.3,2.4,7.27,7.27,0,0,0,1.85,4.26,32,32,0,0,0,3.29,3.66Z"/><path class="cls-1" d="M142.72,78.54c-.61-2.16-1.23-4.27-1.83-6.33-2.3-7.92-4.29-14.75-5.39-19.82a37.81,37.81,0,0,1-.93-7.74h.66a37.12,37.12,0,0,0,.91,7.59c1.09,5,3.08,11.87,5.38,19.78q.9,3.09,1.83,6.33Z"/><path class="cls-1" d="M156.73,69.57c-.31-.61-7.53-15-5-19.55l.57.31c-2.32,4.3,5,18.8,5.05,19Z"/><path class="cls-1" d="M104.9,23.23l-.62-.2c0-.18.16-.49.25-.77.19-.53-.07-1-.4-1.59-.12-.22-.24-.44-.34-.67a9.72,9.72,0,0,1-.79-3.49,12.16,12.16,0,0,1,.76-4.38,27.78,27.78,0,0,1,1.61-3.84c.33-.67.61-1.18.89-1.66l.16-.27.28.15s3.64,2.1,1.2,8a4.27,4.27,0,0,0-.37,2.42l-.62.2a5,5,0,0,1,.38-2.88c1.85-4.45.07-6.42-.65-7-.21.38-.43.8-.69,1.31a28.24,28.24,0,0,0-1.57,3.75,11.55,11.55,0,0,0-.73,4.15,9.4,9.4,0,0,0,.73,3.26c.1.21.21.41.32.61a2.45,2.45,0,0,1,.45,2.13Z"/><path class="cls-1" d="M103,16.52l0-.22a10.49,10.49,0,0,0-.22-1.52,6.43,6.43,0,0,0-1.13-2.08l-.31-.44a15.38,15.38,0,0,1-1.61-3c-.8-2-.55-2.19-.35-2.3a2.94,2.94,0,0,1,.66-.25c1-.3,3.54-.66,5.46,2.32l-.55.36c-1.94-3-4.49-2.19-5.11-1.93a10.23,10.23,0,0,0,.5,1.55,14.65,14.65,0,0,0,1.54,2.84l.3.43a6.92,6.92,0,0,1,1.24,2.3,11.48,11.48,0,0,1,.23,1.62l0,.22Z"/><path class="cls-1" d="M106.1,33.61l-.66,0a15.41,15.41,0,0,1,.15-1.63c.29-1.88-.5-3.92-1.2-5.72l-.13-.33c-.58-1.5,0-3,.59-4.39l0-.1a62.6,62.6,0,0,1,3.84-7.6c.9-1.57,1.66-2.85,2.41-4l.17-.27.27.16a4.29,4.29,0,0,1,1.82,2.6c.44,1.72,0,3.74-1.43,6l-.56-.34c1.29-2.1,1.75-3.95,1.36-5.49a3.85,3.85,0,0,0-1.26-2c-.69,1.1-1.39,2.29-2.21,3.72a63.69,63.69,0,0,0-3.81,7.53l0,.09c-.5,1.25-1.07,2.66-.58,3.91L105,26c.72,1.88,1.55,4,1.23,6.06A13.44,13.44,0,0,0,106.1,33.61Z"/><path class="cls-1" d="M120.32,53.38a10.17,10.17,0,0,1-1.37-.09,7,7,0,0,1-4.67-2.37,11.14,11.14,0,0,1-1-1.7c-.11-.22-.22-.44-.34-.66l-2.31-4.25-5-9.3a3.85,3.85,0,0,1-.13-1.56v-.09c0-.78.14-1.55.23-2.19.17-1.16.39-2.31.59-3.33a19.63,19.63,0,0,1,1.42-4.35,17.5,17.5,0,0,1,3.54-5.39l.19-.18a7.88,7.88,0,0,1,2.79-1.77c1.43-.49,1.54-.2,1.6,0l.07.2a2.71,2.71,0,0,1,.21.68,4.39,4.39,0,0,1-.39,2.44,10.81,10.81,0,0,1-3,3.58l-.27.24a.71.71,0,0,0-.12.13.65.65,0,0,0,0,.17,21.52,21.52,0,0,0,0,5.68,6.85,6.85,0,0,0,1.59,3.58,8.16,8.16,0,0,0,1.78,1.3A12.21,12.21,0,0,1,117,35a20.53,20.53,0,0,1,5.06,5.59,17.73,17.73,0,0,1,1.78,3.82l.06.19-.63.18-.05-.18a17.11,17.11,0,0,0-1.72-3.67,19.84,19.84,0,0,0-4.9-5.41,11,11,0,0,0-1.24-.81,9,9,0,0,1-1.93-1.4,7.6,7.6,0,0,1-1.76-3.92,22,22,0,0,1,0-5.85,1.09,1.09,0,0,1,.09-.41,1.18,1.18,0,0,1,.28-.33l.27-.24a10.46,10.46,0,0,0,2.83-3.35,3.83,3.83,0,0,0,.33-2.08,2.47,2.47,0,0,0-.17-.55h0a7.36,7.36,0,0,0-.85.22,7.28,7.28,0,0,0-2.55,1.62l-.18.18a16.62,16.62,0,0,0-3.4,5.19,19,19,0,0,0-1.38,4.2c-.19,1-.42,2.16-.58,3.3-.09.63-.19,1.38-.23,2.13v.09a3.56,3.56,0,0,0,.08,1.27l5,9.25,2.31,4.25c.12.22.24.44.35.67a12,12,0,0,0,.94,1.6A6.3,6.3,0,0,0,119,52.64a11.17,11.17,0,0,0,2.77,0l.08.65A12.11,12.11,0,0,1,120.32,53.38Z"/><path class="cls-1" d="M127.2,50l-.46-.47A33,33,0,0,0,130,45.87a7.39,7.39,0,0,0,1.85-4.26,13.13,13.13,0,0,0-.3-2.4c0-.26-.09-.51-.13-.76-.21-1.28-.29-2.29-.29-2.34l.65,0s.08,1,.28,2.27c0,.25.09.5.14.75a14.22,14.22,0,0,1,.3,2.52,8,8,0,0,1-2,4.65A32.34,32.34,0,0,1,127.2,50Z"/><path class="cls-1" d="M123.42,78.54l-.62-.18c.61-2.16,1.23-4.27,1.83-6.33,2.3-7.91,4.28-14.73,5.38-19.78a37.12,37.12,0,0,0,.91-7.59h.65a37.31,37.31,0,0,1-.92,7.74c-1.1,5.07-3.09,11.9-5.39,19.82C124.66,74.27,124,76.38,123.42,78.54Z"/><path class="cls-1" d="M109.42,69.57l-.59-.29c.08-.15,7.38-14.65,5-19l.58-.31C116.94,54.61,109.73,69,109.42,69.57Z"/><path class="cls-1" d="M133.07,16.07c-12.36,0-22-3.53-22-8s9.68-8,22-8,22.05,3.53,22.05,8S145.43,16.07,133.07,16.07Zm0-15.42C121.48.65,111.69,4,111.69,8s9.79,7.39,21.38,7.39S154.46,12,154.46,8,144.67.65,133.07.65Z"/><path class="cls-1" d="M160.05,33.61a13.86,13.86,0,0,0-.13-1.56c-.32-2,.5-4.18,1.23-6l.13-.34c.48-1.25-.08-2.66-.58-3.9l0-.1a62.18,62.18,0,0,0-3.81-7.53c-.82-1.43-1.53-2.62-2.21-3.72a3.92,3.92,0,0,0-1.27,2c-.38,1.53.06,3.36,1.33,5.45l-.25.22-.28.16.28-.16-.31.12c-1.37-2.26-1.83-4.26-1.4-6a4.37,4.37,0,0,1,1.83-2.6l.27-.16.17.27c.74,1.18,1.51,2.46,2.41,4a62.6,62.6,0,0,1,3.84,7.6l0,.1c.55,1.36,1.17,2.9.59,4.39l-.13.33c-.7,1.8-1.49,3.84-1.2,5.72a13.35,13.35,0,0,1,.15,1.63Z"/><path class="cls-1" d="M145.83,53.38a11.89,11.89,0,0,1-1.56-.1l.08-.65a11.17,11.17,0,0,0,2.77,0,6.3,6.3,0,0,0,4.23-2.12,11,11,0,0,0,.93-1.6l.35-.67Q153.8,46.14,155,44l5-9.3a4,4,0,0,0,.06-1.22v-.09c0-.75-.14-1.5-.23-2.13-.17-1.14-.39-2.29-.58-3.3a19,19,0,0,0-1.38-4.2,16.8,16.8,0,0,0-3.4-5.19,7.38,7.38,0,0,0-2.74-1.8,6.65,6.65,0,0,0-.84-.22h0a3.08,3.08,0,0,0-.16.55,3.74,3.74,0,0,0,.33,2.08,8.35,8.35,0,0,0,2.09,2.68l.71.64.3.28a1,1,0,0,1,.28.32,1.17,1.17,0,0,1,.09.41,22.12,22.12,0,0,1-.05,5.85,7.44,7.44,0,0,1-1.76,3.92,8.66,8.66,0,0,1-1.92,1.4,11,11,0,0,0-1.24.81,19.84,19.84,0,0,0-4.9,5.41,16.64,16.64,0,0,0-1.72,3.67l0,.18-.63-.18.06-.2a17.42,17.42,0,0,1,1.78-3.81A20.37,20.37,0,0,1,149.13,35a12.21,12.21,0,0,1,1.31-.85,8.16,8.16,0,0,0,1.78-1.3,6.85,6.85,0,0,0,1.59-3.58,21.07,21.07,0,0,0,0-5.68.65.65,0,0,0,0-.17.71.71,0,0,0-.12-.13l-.3-.27c-.25-.21-.49-.43-.72-.65a9.09,9.09,0,0,1-2.24-2.9,4.39,4.39,0,0,1-.39-2.44,3.2,3.2,0,0,1,.2-.68l.08-.2c.06-.17.17-.46,1.6,0a8.1,8.1,0,0,1,3,2,17.31,17.31,0,0,1,3.53,5.39,19.18,19.18,0,0,1,1.43,4.35c.2,1,.42,2.17.59,3.33.09.64.19,1.41.23,2.19v.09a4.31,4.31,0,0,1-.11,1.51l-5.07,9.35-2.31,4.25c-.12.22-.23.44-.34.66a11.14,11.14,0,0,1-1,1.7,7,7,0,0,1-4.67,2.37A10.17,10.17,0,0,1,145.83,53.38Z"/><path class="cls-1" d="M133.08,36.37l0-.66A22.29,22.29,0,0,0,146.47,31a20.63,20.63,0,0,0,6.39-8.8l.61.24a21.23,21.23,0,0,1-6.59,9.07A23,23,0,0,1,133.08,36.37Z"/><path class="cls-1" d="M154.67,10.35c-.07-1.37-.21-2.26-.21-2.26l.65-.11c0,.18.15,1.1.21,2.34Z"/><path class="cls-1" d="M133.08,36.37a23,23,0,0,1-13.81-4.84,21.23,21.23,0,0,1-6.59-9.07l.61-.24a20.63,20.63,0,0,0,6.39,8.8,22.31,22.31,0,0,0,13.41,4.69Z"/><path class="cls-1" d="M111.48,10.35l-.66,0C110.89,8.9,111,8,111,8l.65.11A18.34,18.34,0,0,0,111.48,10.35Z"/><path class="cls-1" d="M124.57,10.59c.89.07,1.79.1,2.69.19a20.66,20.66,0,0,1,2.7.39,9.27,9.27,0,0,1,1.55.48,5,5,0,0,1,1,.52,2.74,2.74,0,0,1,.52.5c.07.09.36.53.25.63a.21.21,0,0,1-.11-.2,1,1,0,0,1,.2-.61,1.75,1.75,0,0,1,.46-.44,5.88,5.88,0,0,1,1.54-.68,16.38,16.38,0,0,1,1.84-.43c.52-.1,1-.18,1.55-.24l.66-.07c13.91-1.39,10-5.26,10-5.26s6.17,3.85-7.2,6c0,0-7.73.94-8.84,2.92,0,.05-.1.06-.12,0-.17-.41-.93-1.56-4.23-2l-1.29-.18L126,11.87l-1.9-.35c-.67-.14-1.34-.28-2-.44s-1.32-.33-2-.52-1.2-.37-1.79-.6a10.39,10.39,0,0,1-1.48-.68,4.55,4.55,0,0,1-1-.76,1.54,1.54,0,0,1-.45-.84,1.28,1.28,0,0,1,.26-.92,4.85,4.85,0,0,1,1.75-1.39,1.47,1.47,0,0,0-.36.46A2.25,2.25,0,0,0,116.66,7a2,2,0,0,0,.74,1.46,7.32,7.32,0,0,0,2.95,1.4,22.12,22.12,0,0,0,3.43.67Z"/><path class="cls-1" d="M133.09,10.46a4.15,4.15,0,0,1,1.25-1c.82-.43,1.74-.63,2.59-1a2.6,2.6,0,0,0,.87-.5.53.53,0,0,0,.15-.35c0-.53-.74-.85-1.16-1a3.82,3.82,0,0,0-1.17-.06,11.44,11.44,0,0,0-2.53.49,9.36,9.36,0,0,0-3.35-.56,3.16,3.16,0,0,0-1.35.33,1,1,0,0,0-.56,1c.13.4.64.53,1,.67a14.39,14.39,0,0,0,1.7.5C133.44,9.85,133.09,10.46,133.09,10.46Z"/><path class="cls-1" d="M134.34,11a3.06,3.06,0,0,1,1.49-1.19,12,12,0,0,1,1.67-.43,14.45,14.45,0,0,0,1.7-.4c.3-.09.61-.2.91-.32a4.85,4.85,0,0,0,1.19-.63,1.23,1.23,0,0,0,.5-.63,1,1,0,0,0-.1-.73,1.62,1.62,0,0,0-1-.68,5.84,5.84,0,0,0-1.61-.22,16.72,16.72,0,0,0-1.87.09c-.6.06-1.19.15-1.79.25-.44.07-.89.16-1.33.26-.18,0-.34.09-.52.13.29-.07.58-.23.86-.32.72-.23,1.45-.43,2.18-.59a11.88,11.88,0,0,1,5.07-.13,4.29,4.29,0,0,1,1.83.75,1.16,1.16,0,0,1,.47.86,1.31,1.31,0,0,1-.62,1,7.15,7.15,0,0,1-2.92,1c-1.19.21-2.39.34-3.56.63a7.1,7.1,0,0,0-1.4.44,2.69,2.69,0,0,0-1,.61l-.08.12"/><path class="cls-1" d="M142.14,9.85c-1.24.24,2.43-.72,3.58-1.24.77-.34,1.95-.64,2.06-1.64a1.39,1.39,0,0,0-.57-1.23,5.85,5.85,0,0,0-2.08-.86c-.77-.2-1.57-.35-2.34-.48a17.09,17.09,0,0,0-6.94.37,16.07,16.07,0,0,0-2,.67c-.25.11-.5.21-.73.34.23-.12.45-.27.69-.39a15.72,15.72,0,0,1,1.95-.81,16.88,16.88,0,0,1,3-.7,15.5,15.5,0,0,1,3.79,0,18.14,18.14,0,0,1,3.34.67A5.16,5.16,0,0,1,148.55,6a1.15,1.15,0,0,1,.26.65c0,.81-.87,1.33-1.48,1.64a14.53,14.53,0,0,1-2.73,1C143.79,9.51,143,9.69,142.14,9.85Z"/><path class="cls-1" d="M131.35,11.05c-.83-.94-5.13-1.11-9.43-2a5.91,5.91,0,0,1-1.42-.41,1.35,1.35,0,0,1-.86-1.48c.2-.74,1-1.16,1.68-1.46a11.25,11.25,0,0,1,3.79-.91c5.49-.48,7.61,1.43,7.61,1.43a.72.72,0,0,0-.2-.09c-.19-.09-.39-.16-.58-.23a13.18,13.18,0,0,0-2.22-.58,16.2,16.2,0,0,0-3.41-.2,17.42,17.42,0,0,0-2,.22,9.7,9.7,0,0,0-2,.47c-.52.2-1.37.6-1.29,1.29a1.47,1.47,0,0,0,.74.9,7.12,7.12,0,0,0,1.39.67,41.2,41.2,0,0,0,5.4,1.29c.5.12,1,.24,1.51.39a5,5,0,0,1,1.06.39c.09.05.27.14.27.26"/><path class="cls-1" d="M132.53,10.69s-.57-.88-4-1.45a9.29,9.29,0,0,1-1.36-.33,3.51,3.51,0,0,1-1.74-1.07.82.82,0,0,1,.09-1.14,2.68,2.68,0,0,1,1.21-.55A7.36,7.36,0,0,1,128.35,6a14.53,14.53,0,0,1,2.79.3c.43.08.85.18,1.27.3l-.5-.11c-.41-.08-.82-.15-1.23-.2s-1-.12-1.53-.14a6.32,6.32,0,0,0-1.44.11,1.26,1.26,0,0,0-1,.76,1.11,1.11,0,0,0,.4,1.2,2.76,2.76,0,0,0,1.11.52C130,9.21,132.48,10,132.53,10.69Z"/><path class="cls-1" d="M2.62,50.17v-.48H4.31V38H3.63a2.85,2.85,0,0,0-2.1.68,5,5,0,0,0-1.08,2.5H0l.18-3.65H10.49l.14,3.65h-.44a4.41,4.41,0,0,0-1-2.46A3.17,3.17,0,0,0,6.91,38H6.33V49.69H8v.48Z"/><path class="cls-1" d="M11.75,50.17v-.48h1.51V38H11.75v-.48h5V38H15.28v5.33H21V38H19.53v-.48h5V38h-1.5V49.69h1.5v.48h-5v-.48H21V43.91H15.28v5.78h1.51v.48Z"/><path class="cls-1" d="M26.26,50.17v-.48h1.51V38H26.26v-.48h9.92v3h-.42a3,3,0,0,0-1-2A4.22,4.22,0,0,0,32.3,38H29.8v5.33h.41a2.92,2.92,0,0,0,1.84-.44,2.16,2.16,0,0,0,.65-1.55h.42v4.74h-.43A2.39,2.39,0,0,0,32,44.35a3.39,3.39,0,0,0-2.09-.5H29.8v5.84h2.83A3.68,3.68,0,0,0,35.07,49a4.38,4.38,0,0,0,1.16-2.44h.45l-.21,3.59Z"/><path class="cls-1" d="M43.38,50.17v-.48h1.67V38h-1.6v-.48h5.47V38H47.09V49.69h2.75A3.33,3.33,0,0,0,52.08,49a4.85,4.85,0,0,0,1.17-2.42h.39l-.23,3.55Z"/><path class="cls-1" d="M54.08,50.17v-.48h1.59l4.55-12.45h.51L65,49.69h1.4v.48H61.3v-.48H63l-1.35-4H57.74l-1.42,4H58v.48Zm3.85-5.09h3.5L59.74,40Z"/><path class="cls-1" d="M68.69,50.17v-.48h1.69V38h-.67a2.9,2.9,0,0,0-2.11.68,5,5,0,0,0-1.08,2.5h-.45l.18-3.65H76.56l.15,3.65h-.45a4.41,4.41,0,0,0-1-2.46A3.16,3.16,0,0,0,73,38H72.4V49.69H74v.48Z"/><path class="cls-1" d="M79.84,50.17v-.48h1.68V38h-.67a2.9,2.9,0,0,0-2.11.68,5,5,0,0,0-1.08,2.5h-.45l.18-3.65H87.7l.15,3.65H87.4a4.34,4.34,0,0,0-1-2.46A3.15,3.15,0,0,0,84.13,38h-.59V49.69h1.65v.48Z"/><path class="cls-1" d="M89,50.17v-.48h1.51V38H89v-.48H98.9v3h-.43a3,3,0,0,0-1-2A4.24,4.24,0,0,0,95,38h-2.5v5.33h.4a2.94,2.94,0,0,0,1.85-.44,2.2,2.2,0,0,0,.65-1.55h.41v4.74h-.42a2.39,2.39,0,0,0-.69-1.77,3.39,3.39,0,0,0-2.09-.5h-.11v5.84h2.83A3.65,3.65,0,0,0,97.78,49,4.44,4.44,0,0,0,99,46.58h.45l-.21,3.59Z"/><path class="cls-1" d="M172.42,50.17v-.48h1.46V38h-1.46v-.48h5.12a6.81,6.81,0,0,1,3.54.75,2.4,2.4,0,0,1,1.22,2.17,2.5,2.5,0,0,1-.85,2,4.54,4.54,0,0,1-2.42,1v.07a5.43,5.43,0,0,1,2.72,1.14,2.64,2.64,0,0,1,1,2.05,2.88,2.88,0,0,1-1.38,2.56,7.1,7.1,0,0,1-3.9.9Zm3.46-6.87h1.51a3.29,3.29,0,0,0,2.25-.58,3,3,0,0,0,.61-2.19,2.54,2.54,0,0,0-.61-2,3.6,3.6,0,0,0-2.33-.54h-1.43Zm0,.48v5.91h1.76a3.19,3.19,0,0,0,2.28-.61,3.2,3.2,0,0,0,.61-2.27,3.24,3.24,0,0,0-.69-2.34,3.31,3.31,0,0,0-2.37-.69Z"/><path class="cls-1" d="M190.6,50.48a5.51,5.51,0,0,1-2.37-.48,5.41,5.41,0,0,1-1.86-1.5,6.64,6.64,0,0,1-1.16-2.13,8,8,0,0,1-.41-2.55,7,7,0,0,1,.4-2.41,6.25,6.25,0,0,1,1.17-2,6.17,6.17,0,0,1,1.95-1.54,5.09,5.09,0,0,1,2.28-.51,5.22,5.22,0,0,1,2.18.45,5.78,5.78,0,0,1,1.82,1.37,7,7,0,0,1,1.32,2.17,7.38,7.38,0,0,1,.45,2.59,7.6,7.6,0,0,1-.43,2.56,6.76,6.76,0,0,1-1.23,2.14A5.35,5.35,0,0,1,192.89,50,5.51,5.51,0,0,1,190.6,50.48Zm0-12.67a2.81,2.81,0,0,0-2.71,1.49c-.52,1-.78,2.78-.78,5.39a7.44,7.44,0,0,0,.86,4A2.93,2.93,0,0,0,190.6,50a2.9,2.9,0,0,0,2.61-1.32,7.51,7.51,0,0,0,.86-4q0-3.94-.77-5.4A2.8,2.8,0,0,0,190.6,37.81Z"/><path class="cls-1" d="M199.64,47V38h-1.57v-.48h5V38h-1.54v8.83a3.12,3.12,0,0,0,.72,2.22,2.77,2.77,0,0,0,2.11.77,3.12,3.12,0,0,0,2.44-.94,4.09,4.09,0,0,0,.83-2.77V38h-1.53v-.48h3.67V38h-1.53v8.17a4.29,4.29,0,0,1-1.1,3.23,4.7,4.7,0,0,1-3.36,1.05,4.62,4.62,0,0,1-3.06-.93A3.19,3.19,0,0,1,199.64,47Z"/><path class="cls-1" d="M213.46,50.17v-.48h1.69V38h-.68a2.85,2.85,0,0,0-2.1.68,4.92,4.92,0,0,0-1.08,2.5h-.45l.18-3.65h10.31l.14,3.65H221a4.34,4.34,0,0,0-1-2.46,3.13,3.13,0,0,0-2.26-.72h-.58V49.69h1.64v.48Z"/><path class="cls-1" d="M222.36,50.17v-.48h1.69V38h-1.69v-.48h5.45V38h-1.73V49.69h1.73v.48Z"/><path class="cls-1" d="M239.74,53.89v.48h-.52a7,7,0,0,1-4-.87A3.26,3.26,0,0,1,234,50.68V50.4a5.1,5.1,0,0,1-3.32-2.18,7.23,7.23,0,0,1-1.3-4.31,7.59,7.59,0,0,1,.42-2.58,6.29,6.29,0,0,1,1.27-2.1A5.81,5.81,0,0,1,233,37.84a5.07,5.07,0,0,1,2.15-.47,5.36,5.36,0,0,1,2.25.46,5.6,5.6,0,0,1,1.88,1.4,6.65,6.65,0,0,1,1.3,2.14,7.36,7.36,0,0,1,.44,2.56,7.1,7.1,0,0,1-1.33,4.29,5.18,5.18,0,0,1-3.36,2.18,2.27,2.27,0,0,1,0,.24c0,.11,0,.18,0,.23a3,3,0,0,0,.79,2.32,3.86,3.86,0,0,0,2.59.7Zm-4.54-16a2.83,2.83,0,0,0-2.7,1.46,11.9,11.9,0,0,0-.8,5.2,7.58,7.58,0,0,0,.87,4.07,3.28,3.28,0,0,0,5.25.05,7,7,0,0,0,.86-3.87q0-4.08-.76-5.49A2.82,2.82,0,0,0,235.2,37.85Z"/><path class="cls-1" d="M244.21,47V38h-1.56v-.48h5V38h-1.55v8.83a3.08,3.08,0,0,0,.73,2.22,2.75,2.75,0,0,0,2.1.77,3.11,3.11,0,0,0,2.44-.94,4,4,0,0,0,.84-2.77V38h-1.53v-.48h3.66V38h-1.53v8.17a4.29,4.29,0,0,1-1.09,3.23,4.74,4.74,0,0,1-3.37,1.05,4.66,4.66,0,0,1-3.06-.93A3.22,3.22,0,0,1,244.21,47Z"/><path class="cls-1" d="M256,50.17v-.48h1.51V38H256v-.48H266v3h-.43a3,3,0,0,0-.95-2,4.24,4.24,0,0,0-2.5-.55h-2.5v5.33h.4a2.94,2.94,0,0,0,1.85-.44,2.16,2.16,0,0,0,.64-1.55h.42v4.74h-.42a2.39,2.39,0,0,0-.69-1.77,3.4,3.4,0,0,0-2.1-.5h-.1v5.84h2.83a3.65,3.65,0,0,0,2.43-.67A4.44,4.44,0,0,0,266,46.58h.45l-.21,3.59Z"/><rect class="cls-1" x="152.43" y="57.55" width="112.76" height="0.87"/><rect class="cls-1" x="128.94" y="57.55" width="8.26" height="0.87"/><rect class="cls-1" x="2.42" y="57.55" width="111.3" height="0.87"/><path class="cls-1" d="M7.29,67.17h.18v1.6h-.2L7,68.49a1.94,1.94,0,0,1-.68.32,3.22,3.22,0,0,1-.86.1,2.48,2.48,0,0,1-1.94-.85,3.16,3.16,0,0,1-.75-2.19,3.7,3.7,0,0,1,.19-1.21,3.25,3.25,0,0,1,.57-1,2.62,2.62,0,0,1,.93-.71,2.52,2.52,0,0,1,1.85-.15,2.65,2.65,0,0,1,.67.37l.32-.3h.14v1.51h-.2a2.2,2.2,0,0,0-.64-1.09,1.55,1.55,0,0,0-1.06-.38,1.35,1.35,0,0,0-1.28.75,5.48,5.48,0,0,0-.4,2.42,7.82,7.82,0,0,0,.08,1.24,2,2,0,0,0,.26.72,1.42,1.42,0,0,0,.52.48,1.55,1.55,0,0,0,.73.18,1.79,1.79,0,0,0,1.16-.39A2.3,2.3,0,0,0,7.29,67.17Z"/><path class="cls-1" d="M12.06,68.91a2.6,2.6,0,0,1-1.12-.22,2.54,2.54,0,0,1-.88-.71,3.15,3.15,0,0,1-.56-1,4,4,0,0,1-.19-1.21,3.25,3.25,0,0,1,.19-1.14,2.92,2.92,0,0,1,.56-1,2.83,2.83,0,0,1,.92-.73,2.59,2.59,0,0,1,2.11,0,2.55,2.55,0,0,1,.87.65,3.28,3.28,0,0,1,.63,1,3.53,3.53,0,0,1,.21,1.23A3.74,3.74,0,0,1,14.6,67,3.21,3.21,0,0,1,14,68a2.55,2.55,0,0,1-.86.67A2.65,2.65,0,0,1,12.06,68.91Zm0-6a1.32,1.32,0,0,0-1.28.71,6,6,0,0,0-.37,2.56,3.52,3.52,0,0,0,.4,1.89,1.4,1.4,0,0,0,1.25.63,1.37,1.37,0,0,0,1.24-.63,3.57,3.57,0,0,0,.41-1.91,6,6,0,0,0-.37-2.56A1.32,1.32,0,0,0,12.06,62.9Z"/><path class="cls-1" d="M16.41,68.77v-.23h.71V63h-.71v-.23h4.71v1.6h-.2a1.52,1.52,0,0,0-.41-1.07,2,2,0,0,0-1.24-.3H18.09v2.58h.09a1.4,1.4,0,0,0,.89-.22.94.94,0,0,0,.32-.72h.2v2.23h-.2a1.23,1.23,0,0,0-.31-.8,1.14,1.14,0,0,0-.8-.25h-.19v2.7h.75v.23Z"/><path class="cls-1" d="M22.46,68.77v-.23h.71V63h-.71v-.23h4.71v1.6H27a1.48,1.48,0,0,0-.42-1.07,1.91,1.91,0,0,0-1.23-.3H24.13v2.58h.09a1.42,1.42,0,0,0,.9-.22.94.94,0,0,0,.32-.72h.2v2.23h-.2a1.23,1.23,0,0,0-.31-.8,1.14,1.14,0,0,0-.8-.25h-.2v2.7h.76v.23Z"/><path class="cls-1" d="M28.51,68.77v-.23h.71V63h-.71v-.23h4.7v1.44H33a1.42,1.42,0,0,0-.45-.95A2.07,2.07,0,0,0,31.37,63H30.18v2.53h.2a1.39,1.39,0,0,0,.87-.21,1,1,0,0,0,.31-.73h.2v2.25h-.2a1.13,1.13,0,0,0-.33-.84,1.58,1.58,0,0,0-1-.24h-.06v2.77h1.35a1.74,1.74,0,0,0,1.15-.32,2.06,2.06,0,0,0,.56-1.16h.21l-.1,1.71Z"/><path class="cls-1" d="M35.1,68.77v-.23h.71V63H35.1v-.23h4.71v1.44H39.6a1.42,1.42,0,0,0-.45-.95A2.05,2.05,0,0,0,38,63H36.78v2.53H37a1.44,1.44,0,0,0,.88-.21,1,1,0,0,0,.3-.73h.2v2.25h-.2a1.09,1.09,0,0,0-.33-.84,1.56,1.56,0,0,0-1-.24h0v2.77h1.34a1.78,1.78,0,0,0,1.16-.32,2.13,2.13,0,0,0,.55-1.16H40l-.1,1.71Z"/><path class="cls-1" d="M45,68.79h-.16V67.22H45a2.26,2.26,0,0,0,.71,1,1.79,1.79,0,0,0,1.1.38,1.72,1.72,0,0,0,1.16-.4,1.27,1.27,0,0,0,.47-1c0-.45-.48-.82-1.43-1.1l-.17,0a4.07,4.07,0,0,1-1.61-.75,1.36,1.36,0,0,1-.4-1,1.54,1.54,0,0,1,.51-1.2,1.92,1.92,0,0,1,1.34-.47,2.18,2.18,0,0,1,1.14.32L48,63,48,63a.05.05,0,0,0,0,0l.18-.21h.21v1.37h-.18a1.94,1.94,0,0,0-.65-1,1.61,1.61,0,0,0-1-.31,1.43,1.43,0,0,0-.92.3.93.93,0,0,0-.37.75.7.7,0,0,0,.29.59,2.39,2.39,0,0,0,.94.4l.29.07a4.69,4.69,0,0,1,1.44.53,1.52,1.52,0,0,1,.48.56,1.89,1.89,0,0,1,.16.77,2,2,0,0,1-.58,1.48,2.25,2.25,0,0,1-1.58.55,2.31,2.31,0,0,1-1.26-.36l-.11-.06h0s0,0,0,0Z"/><path class="cls-1" d="M50.38,68.77v-.23h.71V63h-.71v-.23h2.39V63h-.71v2.53h2.73V63h-.72v-.23h2.4V63h-.72v5.53h.72v.23h-2.4v-.23h.72V65.8H52.06v2.74h.71v.23Z"/><path class="cls-1" d="M60.83,68.91a2.68,2.68,0,0,1-1.13-.22,2.63,2.63,0,0,1-.88-.71,3.13,3.13,0,0,1-.55-1,3.7,3.7,0,0,1-.19-1.21,3.49,3.49,0,0,1,.18-1.14,3.1,3.1,0,0,1,.56-1,2.93,2.93,0,0,1,.92-.73,2.45,2.45,0,0,1,1.09-.24,2.5,2.5,0,0,1,1,.21,2.61,2.61,0,0,1,.86.65,3,3,0,0,1,.63,1,3.57,3.57,0,0,1,0,2.44,3.19,3.19,0,0,1-.58,1,2.39,2.39,0,0,1-2,.88Zm0-6a1.34,1.34,0,0,0-1.29.71,6,6,0,0,0-.37,2.56,3.51,3.51,0,0,0,.41,1.89,1.55,1.55,0,0,0,2.49,0,3.58,3.58,0,0,0,.4-1.91,6.21,6.21,0,0,0-.36-2.56A1.34,1.34,0,0,0,60.83,62.9Z"/><path class="cls-1" d="M65.14,68.77v-.23h.72V63h-.72v-.23h2.2a3.87,3.87,0,0,1,2,.39,1.25,1.25,0,0,1,.64,1.17,1.4,1.4,0,0,1-.71,1.28,3.83,3.83,0,0,1-2,.44h-.4v2.48h.76v.23Zm1.64-2.93h.43a2.1,2.1,0,0,0,1.34-.33,1.46,1.46,0,0,0,.39-1.16,1.36,1.36,0,0,0-.33-1.06A2.28,2.28,0,0,0,67.23,63h-.45Z"/><path class="cls-1" d="M78.19,68.26a5.12,5.12,0,0,1-.94.5,2.65,2.65,0,0,1-.87.15,2.08,2.08,0,0,1-1.44-.49,1.63,1.63,0,0,1-.55-1.27,1.73,1.73,0,0,1,.5-1.23,2.86,2.86,0,0,1,1.36-.79L76,64.68a2.42,2.42,0,0,1-.19-.4,1.44,1.44,0,0,1-.06-.4,1.08,1.08,0,0,1,.42-.87,1.65,1.65,0,0,1,1.07-.33,1.67,1.67,0,0,1,1,.3.92.92,0,0,1,.39.76,1,1,0,0,1-.36.74,3.09,3.09,0,0,1-1.08.55l1.54,2.36a2.54,2.54,0,0,0,.6-.9,3.7,3.7,0,0,0,.24-1.18h-.83V65.1h1.86v.21H79.8a3.94,3.94,0,0,1-.28,1.3,2.8,2.8,0,0,1-.67,1l.62,1h.78v.23H78.52Zm-1.83-2.92a2,2,0,0,0-.86.44,1,1,0,0,0-.27.71,1.93,1.93,0,0,0,.14.7,2.61,2.61,0,0,0,.37.7,1.8,1.8,0,0,0,.51.49,1.21,1.21,0,0,0,.6.15,1.58,1.58,0,0,0,.58-.12,2.78,2.78,0,0,0,.64-.36Zm.69-.48a1.29,1.29,0,0,0,.68-.43,1.25,1.25,0,0,0,.21-.76.77.77,0,0,0-.21-.57.84.84,0,0,0-.59-.2.81.81,0,0,0-.54.19.6.6,0,0,0-.2.47.93.93,0,0,0,0,.27,1.23,1.23,0,0,0,.12.26Z"/><path class="cls-1" d="M85.22,68.77v-.23h.7V63h-.7v-.23h2.44a3.16,3.16,0,0,1,1.67.36,1.13,1.13,0,0,1,.58,1,1.21,1.21,0,0,1-.4.93,2.22,2.22,0,0,1-1.15.48v0a2.54,2.54,0,0,1,1.29.53,1.25,1.25,0,0,1,.47,1,1.35,1.35,0,0,1-.65,1.21,3.31,3.31,0,0,1-1.85.43Zm1.64-3.26h.72a1.54,1.54,0,0,0,1.07-.28,1.42,1.42,0,0,0,.29-1,1.22,1.22,0,0,0-.29-.93A1.75,1.75,0,0,0,87.54,63h-.68Zm0,.23v2.8h.84a1.54,1.54,0,0,0,1.08-.29,1.47,1.47,0,0,0,.29-1.07,1.21,1.21,0,0,0-1.45-1.44Z"/><path class="cls-1" d="M91.51,68.77v-.23h.76l2.16-5.91h.24l2,5.91h.66v.23H94.94v-.23h.78l-.63-1.92H93.25l-.67,1.92h.8v.23Zm1.83-2.42H95L94.2,64Z"/><path class="cls-1" d="M98.59,68.54h.75V63h-.71v-.23h2.68a3.22,3.22,0,0,1,1.64.35,1.09,1.09,0,0,1,.57,1,1.19,1.19,0,0,1-.52,1,2.56,2.56,0,0,1-1.41.42v.07a2.47,2.47,0,0,1,1.13.46,1.26,1.26,0,0,1,.51.83,4.53,4.53,0,0,1,0,.75,2.15,2.15,0,0,0,.09.67.45.45,0,0,0,.18.24.51.51,0,0,0,.3.07l.24,0,.25-.08v.22a3,3,0,0,1-.46.14,1.55,1.55,0,0,1-.42,0,1,1,0,0,1-.9-.43,2.89,2.89,0,0,1-.34-1.41.18.18,0,0,0,0-.06,1.4,1.4,0,0,0-.29-1,1.21,1.21,0,0,0-.48-.31,1.64,1.64,0,0,0-.6-.11h-.56v2.91H101v.23H98.59Zm1.69-3.14h.56a2.24,2.24,0,0,0,1.31-.27,1.19,1.19,0,0,0,.33-1,1.14,1.14,0,0,0-.28-.9,1.67,1.67,0,0,0-1.09-.25h-.83Z"/><path class="cls-1" d="M172.69,68.76v-.22h.72V63h-.72v-.23h4.71v1.44h-.2a1.4,1.4,0,0,0-.46-.95,1.94,1.94,0,0,0-1.18-.26h-1.19v2.53h.19a1.42,1.42,0,0,0,.88-.21,1.09,1.09,0,0,0,.31-.74h.19v2.25h-.2a1.13,1.13,0,0,0-.32-.84,1.69,1.69,0,0,0-1-.23h0v2.77h1.34a1.77,1.77,0,0,0,1.16-.32,2.06,2.06,0,0,0,.55-1.16h.22l-.1,1.7Z"/><path class="cls-1" d="M183.86,68.79h-.16V67.22h.18a2.18,2.18,0,0,0,.71,1,1.8,1.8,0,0,0,2.26,0,1.24,1.24,0,0,0,.46-1c0-.46-.47-.83-1.42-1.11l-.17-.05a4.39,4.39,0,0,1-1.62-.74,1.42,1.42,0,0,1-.4-1,1.56,1.56,0,0,1,.52-1.2,1.91,1.91,0,0,1,1.34-.46,2.2,2.2,0,0,1,1.14.31l.12.06h.05l0,0,.18-.22h.21v1.37h-.18a2,2,0,0,0-.65-.94,1.63,1.63,0,0,0-1-.32,1.38,1.38,0,0,0-.92.31.91.91,0,0,0-.37.74.75.75,0,0,0,.28.6,2.71,2.71,0,0,0,.95.39l.28.07a5,5,0,0,1,1.45.53,1.37,1.37,0,0,1,.47.57,1.7,1.7,0,0,1,.17.76,2,2,0,0,1-.58,1.48,2.2,2.2,0,0,1-1.58.55,2.39,2.39,0,0,1-1.26-.35l-.11-.06h0s0,0,0,0Z"/><path class="cls-1" d="M194.62,68.76v-.22h.8V63h-.32a1.41,1.41,0,0,0-1,.32,2.41,2.41,0,0,0-.51,1.19h-.21l.08-1.73h4.89l.07,1.73h-.21a2,2,0,0,0-.48-1.16,1.47,1.47,0,0,0-1.07-.35h-.28v5.53h.79v.22Z"/><path class="cls-1" d="M204.91,68.54V63h-.72v-.23h2.32a3.32,3.32,0,0,1,2.35.76,2.8,2.8,0,0,1,.82,2.16,3.54,3.54,0,0,1-.3,1.49,2.78,2.78,0,0,1-.9,1.09,2.4,2.4,0,0,1-.79.37,4.82,4.82,0,0,1-1.09.11h-2.41v-.22Zm1-5.53v5.53h.69a3.45,3.45,0,0,0,.84-.1,1.53,1.53,0,0,0,.6-.29,1.38,1.38,0,0,0,.48-.73,6.28,6.28,0,0,0,.14-1.67,6.88,6.88,0,0,0-.12-1.54,1.52,1.52,0,0,0-.41-.74,1.47,1.47,0,0,0-.64-.35,3.39,3.39,0,0,0-1-.11Z"/><path class="cls-1" d="M230.82,68.76v-.42l1.56-1.43a6,6,0,0,0,1.12-1.25,2,2,0,0,0,.37-1.08,1.3,1.3,0,0,0-.36-1,1.36,1.36,0,0,0-1-.35,1.42,1.42,0,0,0-.88.27.73.73,0,0,0-.36.6.17.17,0,0,0,0,.08s0,0,.05,0h0a1.13,1.13,0,0,1,.32,0A.46.46,0,0,1,232,65a.48.48,0,0,1-.35.13.57.57,0,0,1-.46-.21.72.72,0,0,1-.19-.53,1.19,1.19,0,0,1,.53-1,2.26,2.26,0,0,1,1.36-.4,2.21,2.21,0,0,1,1.41.42,1.3,1.3,0,0,1,.53,1.08,1.59,1.59,0,0,1-.36.94,7.06,7.06,0,0,1-1.26,1.21l-1.77,1.43H234a.63.63,0,0,0,.44-.12,1.27,1.27,0,0,0,.2-.62h.25l-.13,1.44Z"/><path class="cls-1" d="M240.86,65.94a3.44,3.44,0,0,1,.62-2.12,1.86,1.86,0,0,1,3.1,0,4,4,0,0,1,0,4.24,1.83,1.83,0,0,1-1.54.83,1.72,1.72,0,0,1-.78-.18,2.27,2.27,0,0,1-.67-.56,2.74,2.74,0,0,1-.54-1A3.82,3.82,0,0,1,240.86,65.94Zm1,0a5.47,5.47,0,0,0,.28,2.08,1,1,0,0,0,1.8,0,5.67,5.67,0,0,0,.28-2.09,5.57,5.57,0,0,0-.29-2.08.93.93,0,0,0-1.78,0A5.62,5.62,0,0,0,241.85,66Z"/><path class="cls-1" d="M250.89,68.76v-.42l1.57-1.43a6.69,6.69,0,0,0,1.12-1.25,2.09,2.09,0,0,0,.36-1.08,1.3,1.3,0,0,0-.36-1,1.34,1.34,0,0,0-1-.35,1.44,1.44,0,0,0-.88.27.73.73,0,0,0-.36.6s0,.06,0,.08,0,0,0,0h0a1.19,1.19,0,0,1,.32,0,.42.42,0,0,1,.32.12.5.5,0,0,1,0,.66.48.48,0,0,1-.35.13.57.57,0,0,1-.46-.21.76.76,0,0,1-.19-.53,1.19,1.19,0,0,1,.53-1A2.26,2.26,0,0,1,253,63a2.19,2.19,0,0,1,1.41.42,1.28,1.28,0,0,1,.54,1.08,1.54,1.54,0,0,1-.37.94,7.06,7.06,0,0,1-1.26,1.21l-1.76,1.43H254a.63.63,0,0,0,.44-.12,1.25,1.25,0,0,0,.21-.62h.25l-.14,1.44Z"/><path class="cls-1" d="M261.54,68.76v-.22h1.22v-4.9a.34.34,0,0,0-.14-.31,1.2,1.2,0,0,0-.5-.08h-.59v-.19l2-.08v5.56h1.11v.22Z"/></g></g></svg>