<svg xmlns="http://www.w3.org/2000/svg" viewBox="0 0 213.7 213.7"><defs><style>.cls-1{fill:#cb9d6a;}.cls-2,.cls-4{fill:none;stroke:#fff;stroke-miterlimit:10;}.cls-2{stroke-width:0.75px;}.cls-3{fill:#fff;}</style></defs><g id="Layer_2" data-name="Layer 2"><g id="Layer_1-2" data-name="Layer 1"><circle class="cls-1" cx="106.8" cy="106.8" r="106.8"/><path class="cls-2" d="M151.7,101.9l-.3-1.2c-.5-1.4.5-2.5,1.1-3.8a13,13,0,0,0,1.1-5.1,16,16,0,0,0-1.1-6.4,40.5,40.5,0,0,0-2.4-5.7c-.4-.8-.8-1.7-1.3-2.5s-5.2,2.9-1.6,11.5c0,0,1.1,2.4.6,4"/><path class="cls-2" d="M150.8,80.9c3.6-5.6,8.6-3,8.6-3s-.7,2.7-.8,2.9a26.4,26.4,0,0,1-2.3,4.4,11.8,11.8,0,0,0-2.3,3.9,12.4,12.4,0,0,0-.3,2.7"/><path class="cls-2" d="M111.2,121.4a30,30,0,0,1-.5,3.5,39.3,39.3,0,0,0-.6,4.8c0,2.6,1.4,4.8,2.9,6.7a44.4,44.4,0,0,0,5,5.6"/><path class="cls-2" d="M111.5,134.3a22.7,22.7,0,0,0-1.3,12.9c2.1,9.7,6.4,23.9,10.8,39.4"/><path class="cls-2" d="M142.1,173s-8.5-23.6-4.8-30.4"/><path class="cls-2" d="M65.8,101.9a8.4,8.4,0,0,1,.4-1.2c.5-1.4-.6-2.5-1.2-3.8a15,15,0,0,1-1.1-5.1A18,18,0,0,1,65,85.4a57.2,57.2,0,0,1,2.4-5.7l1.3-2.5s5.2,2.9,1.6,11.5c0,0-1,2.4-.5,4"/><path class="cls-2" d="M66.7,80.9c-3.6-5.6-8.5-3-8.5-3s.6,2.7.7,2.9a21.1,21.1,0,0,0,2.4,4.4,13.6,13.6,0,0,1,2.2,3.9,25.1,25.1,0,0,1,.4,2.7"/><path class="cls-2" d="M76.5,94.3c5.5-9-.4-12.3-.4-12.3l-3.6,6a101.8,101.8,0,0,0-5.8,11.4c-.8,2.1-1.8,4.3-.9,6.5s2.5,6.2,2,9.3a21.2,21.2,0,0,0-.2,2.4"/><path class="cls-2" d="M94.5,134.3c0-.1-.1-.2-.1-.3a29.1,29.1,0,0,0-10.1-13.9c-1.6-1.2-3.4-1.9-4.8-3.3a11.4,11.4,0,0,1-2.5-5.6,36.2,36.2,0,0,1-.1-8.7.9.9,0,0,0,.1-.5l.3-.3c1.9-1.7,3.8-3.3,4.8-5.6a5.9,5.9,0,0,0,.6-3.4c-.1-.5-.3-.8-.4-1.3a11.6,11.6,0,0,0-1.8.4,10.7,10.7,0,0,0-4,2.6l-.3.2a26.3,26.3,0,0,0-5.2,8,30.3,30.3,0,0,0-2.2,6.4c-.3,1.7-.6,3.4-.8,5s-.3,2.2-.4,3.3a8.1,8.1,0,0,0,.1,2.2l1.2,2.2,2.8,5.2,3.6,6.7c1.2,2.1,2.4,4.2,3.5,6.4s1.2,2.4,2,3.5,1.5,4.4,4,4.7a15.5,15.5,0,0,0,4.3,0"/><path class="cls-2" d="M106.4,121.4s.1,1.5.4,3.5a26.5,26.5,0,0,1,.7,4.8,11.7,11.7,0,0,1-2.9,6.7,53.9,53.9,0,0,1-5,5.6"/><path class="cls-2" d="M106,134.3a75.5,75.5,0,0,0-4.1,12.9c-2.1,9.7-6.5,23.9-10.9,39.4"/><path class="cls-2" d="M69.9,173s14-23.6,10.4-30.4"/><ellipse class="cls-2" cx="108.8" cy="79.1" rx="32.8" ry="11.6"/><path class="cls-2" d="M141,94.3h0c-5.4-8.9.4-12.2.4-12.2,1.3,2,2.5,4,3.7,6a101,101,0,0,1,5.7,11.4c.8,2.1,1.8,4.3,1,6.5s-2.5,6.2-2.1,9.3a22.4,22.4,0,0,1,.3,2.4"/><path class="cls-2" d="M123,134.3a.4.4,0,0,0,.1-.3,32,32,0,0,1,2.7-5.6,29.7,29.7,0,0,1,7.5-8.3c1.5-1.2,3.4-1.9,4.7-3.3a10.6,10.6,0,0,0,2.5-5.6,31.7,31.7,0,0,0,.1-8.7.9.9,0,0,0-.1-.5l-.3-.3-1.5-1.4a12.3,12.3,0,0,1-3.3-4.2,5.8,5.8,0,0,1-.5-3.4,3.3,3.3,0,0,1,.4-1.3,13.6,13.6,0,0,1,1.7.4,12.7,12.7,0,0,1,4.4,2.8,28.3,28.3,0,0,1,5.2,8,30,30,0,0,1,2.1,6.4l.9,5c.1,1.1.3,2.2.3,3.3a5.5,5.5,0,0,1-.1,2.2l-1.1,2.2-2.9,5.2-3.6,6.7-3.5,6.4a31.2,31.2,0,0,1-2,3.5c-1.5,2-7,4.4-9.4,4.7a15.5,15.5,0,0,1-4.3,0"/><path class="cls-2" d="M139.1,100.7a31.6,31.6,0,0,1-9.8,13.4,34.2,34.2,0,0,1-20.5,7.2"/><path class="cls-2" d="M141.5,79.1c0,.2.2,1.6.3,3.5"/><path class="cls-2" d="M78.5,100.7a30.8,30.8,0,0,0,9.8,13.4,34,34,0,0,0,20.5,7.2"/><path class="cls-2" d="M76,79.1c0,.2-.2,1.5-.3,3.4"/><path class="cls-3" d="M95.9,82.9l4.1.3,4.1.6,2.3.7,1.5.8.8.8c.1.1.5.8.3.9s-.1-.2-.1-.3.1-.6.3-.9a1.6,1.6,0,0,1,.7-.7l2.3-1a12.7,12.7,0,0,1,2.8-.6l2.3-.4h1c21-2.1,15.1-7.9,15.1-7.9s9.3,5.8-10.9,9c0,0-11.7,1.4-13.4,4.4H109c-.3-.6-1.4-2.3-6.4-3l-2-.2-2.5-.4-2.8-.6-3.1-.6-2.9-.8L86.6,82l-2.3-1a8.8,8.8,0,0,1-1.5-1.2,2.1,2.1,0,0,1-.7-1.3,1.6,1.6,0,0,1,.4-1.3,6.6,6.6,0,0,1,2.6-2.1,1.8,1.8,0,0,0-.5.7,3.5,3.5,0,0,0-.6,1.7,3.1,3.1,0,0,0,1.1,2.2,10.4,10.4,0,0,0,4.5,2.1,29.9,29.9,0,0,0,5.2,1Z"/><path class="cls-3" d="M108.8,82.7a5.2,5.2,0,0,1,1.9-1.4c1.2-.7,2.6-1,3.9-1.6a5.4,5.4,0,0,0,1.3-.7,1.4,1.4,0,0,0,.2-.6c0-.8-1.1-1.2-1.7-1.4h-1.8a16.1,16.1,0,0,0-3.8.8,12.8,12.8,0,0,0-5.1-.9,7.3,7.3,0,0,0-2,.5c-.5.3-1.1.9-.8,1.6s.9.8,1.4,1l2.6.7C109.3,81.8,108.8,82.7,108.8,82.7Z"/><path class="cls-3" d="M110.7,83.6a4.9,4.9,0,0,1,2.2-1.8,11,11,0,0,1,2.6-.6l2.5-.6,1.4-.5,1.8-1a1.6,1.6,0,0,0,.7-.9,1.4,1.4,0,0,0-.1-1.1,2,2,0,0,0-1.5-1,10,10,0,0,0-2.4-.4l-2.8.2-2.7.3-2,.4-.8.2,1.3-.5,3.3-.8a16.3,16.3,0,0,1,7.6-.2,6.9,6.9,0,0,1,2.8,1.1,1.7,1.7,0,0,1,.7,1.3,2.2,2.2,0,0,1-1,1.5,9.2,9.2,0,0,1-4.4,1.5l-5.3,1a7.4,7.4,0,0,0-2.1.7,3.2,3.2,0,0,0-1.6.9v.2"/><path class="cls-3" d="M122.4,81.8c-1.8.4,3.7-1.1,5.4-1.8s3-1,3.2-2.5a2.3,2.3,0,0,0-.9-1.9,9,9,0,0,0-3.2-1.3l-3.5-.7a25.9,25.9,0,0,0-10.4.6,16,16,0,0,0-3.1,1l-1.1.5,1-.6a18.8,18.8,0,0,1,3-1.2,22.8,22.8,0,0,1,4.5-1.1,27.2,27.2,0,0,1,5.7-.1,21.3,21.3,0,0,1,5,1.1c1.5.4,3.2,1,4.1,2.3a1.5,1.5,0,0,1,.4.9c0,1.3-1.3,2-2.2,2.5a20.2,20.2,0,0,1-4.1,1.5Z"/><path class="cls-3" d="M106.2,83.6c-1.3-1.4-7.8-1.6-14.3-2.9a8.3,8.3,0,0,1-2.1-.6,2.1,2.1,0,0,1-1.3-2.3c.3-1.1,1.6-1.7,2.5-2.2a16.3,16.3,0,0,1,5.8-1.3c8.2-.8,11.4,2.1,11.4,2.1h-.3l-.8-.4a20.9,20.9,0,0,0-3.4-.8,21.9,21.9,0,0,0-5.1-.3,15.5,15.5,0,0,0-3.1.3,14.6,14.6,0,0,0-3,.7c-.8.3-2.1.9-2,1.9a2.3,2.3,0,0,0,1.1,1.4l2.1,1c2.7,1,5.5,1.3,8.2,2l2.3.5,1.6.6c.1.1.4.2.4.4"/><path class="cls-3" d="M77.5,48.3v-.2h.7V43h-.7v-.2h4.3v1.3h-.2a.9.9,0,0,0-.4-.8,1.6,1.6,0,0,0-1.1-.3h-1v2.3h.1c.4,0,.7,0,.8-.2a.6.6,0,0,0,.3-.6h.2v2h-.2a.8.8,0,0,0-.3-.7,1.2,1.2,0,0,0-.9-.3h0v2.6h1.2a1.3,1.3,0,0,0,1-.3,1.6,1.6,0,0,0,.5-1.1H82v1.6Z"/><path class="cls-3" d="M85.4,48.3h-.1V46.9h.1a2.2,2.2,0,0,0,.7.9,1.8,1.8,0,0,0,1,.4,1.5,1.5,0,0,0,1-.4,1.4,1.4,0,0,0,.5-.9c0-.4-.5-.8-1.3-1s-.2,0-.2-.1l-1.5-.6a1.7,1.7,0,0,1-.3-1,1.5,1.5,0,0,1,.4-1.1,2,2,0,0,1,1.3-.4,1.9,1.9,0,0,1,1,.3h.2l.2-.2h.1V44h-.1a2.4,2.4,0,0,0-.6-.8,1.6,1.6,0,0,0-.9-.3,1.4,1.4,0,0,0-.9.3.9.9,0,0,0-.3.7.8.8,0,0,0,.2.5l.9.4h.3l1.3.5a1,1,0,0,1,.4.5,1.9,1.9,0,0,1,.2.7,1.8,1.8,0,0,1-.6,1.4,2,2,0,0,1-1.4.5,1.9,1.9,0,0,1-1.2-.4h-.1Z"/><path class="cls-3" d="M92.9,48.3v-.2h.8V43h-.3a1.2,1.2,0,0,0-.9.3,2.3,2.3,0,0,0-.5,1.1h-.2V42.8h4.4v1.6h-.2a2.3,2.3,0,0,0-.4-1.1,1.5,1.5,0,0,0-1-.3h-.3v5.1h.8v.2Z"/><path class="cls-3" d="M100,48.1V43h-.6v-.2h2.1a2.8,2.8,0,0,1,2.1.7,2.6,2.6,0,0,1,.8,2,2.8,2.8,0,0,1-.3,1.3,2,2,0,0,1-.8,1l-.7.4H99.4v-.2Zm.9-5.1v5.1h1.4l.6-.3a1.6,1.6,0,0,0,.4-.7,5,5,0,0,0,.1-1.5,5.3,5.3,0,0,0-.1-1.4,1.6,1.6,0,0,0-.4-.7l-.6-.3h-1.4Z"/><path class="cls-3" d="M112.1,48.3v-.4l1.5-1.3a5.3,5.3,0,0,0,1-1.2,1.7,1.7,0,0,0,.3-1,1.1,1.1,0,0,0-.3-.8,1.2,1.2,0,0,0-.9-.3,1.1,1.1,0,0,0-.8.2.7.7,0,0,0-.3.6h.3c.2,0,.3,0,.3.1s.2.2.2.3-.1.2-.2.3h-.3c-.2,0-.3,0-.4-.2a.5.5,0,0,1-.2-.4,1.1,1.1,0,0,1,.5-.9A1.6,1.6,0,0,1,114,43a1.7,1.7,0,0,1,1.3.4,1,1,0,0,1,.5,1,1.6,1.6,0,0,1-.3.8,4.4,4.4,0,0,1-1.2,1.1l-1.6,1.3h2.7c.1-.1.1-.2.2-.5h.2v1.3Z"/><path class="cls-3" d="M119,45.7a2.9,2.9,0,0,1,.6-1.9A1.6,1.6,0,0,1,121,43a1.9,1.9,0,0,1,1.4.8,2.9,2.9,0,0,1,.5,1.9,2.9,2.9,0,0,1-.5,1.9,1.9,1.9,0,0,1-1.4.8l-.7-.2a1,1,0,0,1-.6-.5,2,2,0,0,1-.5-.9A2,2,0,0,1,119,45.7Zm.9,0a7.8,7.8,0,0,0,.2,1.9,1,1,0,0,0,.9.6c.4,0,.6-.2.8-.6a4.7,4.7,0,0,0,.2-1.9,4.7,4.7,0,0,0-.2-1.9.9.9,0,0,0-.8-.6.8.8,0,0,0-.8.6A4.7,4.7,0,0,0,119.9,45.7Z"/><path class="cls-3" d="M125.9,48.3v-.4l1.4-1.3a5.3,5.3,0,0,0,1-1.2,1.7,1.7,0,0,0,.3-1,1.1,1.1,0,0,0-.3-.8,1.2,1.2,0,0,0-.9-.3,1.1,1.1,0,0,0-.8.2.7.7,0,0,0-.3.6h0c.1,0,.1,0,.1-.1h.6c0,.1.1.2.1.3s-.1.2-.1.3h-.4a.4.4,0,0,1-.4-.2.5.5,0,0,1-.2-.4,1.1,1.1,0,0,1,.5-.9,1.8,1.8,0,0,1,1.3-.4,2,2,0,0,1,1.3.4,1.2,1.2,0,0,1,.4,1,1.6,1.6,0,0,1-.3.8,5.6,5.6,0,0,1-1.1,1.1l-1.7,1.3h2.7c.1-.1.1-.2.2-.5h.2v1.3Z"/><path class="cls-3" d="M133.3,48.3v-.2h1.1V43.6c0-.1-.1-.2-.1-.3h.8v5.1h1v.2Z"/><path class="cls-3" d="M108,83.1s-.9-1.3-6.1-2.2l-2-.5a5.3,5.3,0,0,1-2.7-1.6,1.2,1.2,0,0,1,.2-1.7,4.4,4.4,0,0,1,1.8-.9l2.5-.2a20.1,20.1,0,0,1,4.2.5l1.9.4-.8-.2-1.8-.3-2.4-.2a7.5,7.5,0,0,0-2.1.2c-.7.2-1.3.4-1.6,1.1a1.7,1.7,0,0,0,.6,1.8,3.8,3.8,0,0,0,1.7.8C104.2,80.9,107.9,82.1,108,83.1Z"/><path class="cls-4" d="M184.5,157.2a92,92,0,0,0,14.7-50.1,95.7,95.7,0,0,0-1.4-16.2"/><path class="cls-4" d="M15.8,90.9a95.7,95.7,0,0,0-1.4,16.2,91.3,91.3,0,0,0,14.8,50.1"/><path class="cls-3" d="M22.2,80h-.3l.4-1.1L14.9,76h0l-.2.3a1.7,1.7,0,0,0,0,1.4A2.7,2.7,0,0,0,16,79.1v.3l-2.3-1L16.1,72l2.3.9v.2H16.5a2.4,2.4,0,0,0-1,1.3v.2a.1.1,0,0,0-.1.1l7.4,2.9.3-1h.3Z"/><path class="cls-3" d="M26.8,69.4l-.3-.2.5-.9-6.9-3.9-.5.9-.2-.2L21,62.2l.3.2-.5.9,3.1,1.8,1.9-3.3L22.7,60l-.5.8h-.3l1.7-2.9h.3l-.5.9,6.8,3.9.5-.8H31l-1.7,2.9-.2-.2.4-.8-3.4-2-1.8,3.3,3.4,2,.5-.9.2.2Z"/><path class="cls-3" d="M34.8,56.5l-.3-.2.7-.8L29,50.6l-.6.8-.3-.2,4.1-5.1,1.6,1.2-.2.3a1.8,1.8,0,0,0-1.4-.4,3.2,3.2,0,0,0-1.4,1.1l-1,1.3,2.8,2.2.2-.2a1.5,1.5,0,0,0,.5-1.1,1.6,1.6,0,0,0-.5-1v-.2l2.6,2-.2.2c-.5-.3-.9-.5-1.2-.4a2.4,2.4,0,0,0-1.2.9h0L36,54.5,37.1,53a2.5,2.5,0,0,0,.7-1.5,3.2,3.2,0,0,0-.8-1.7l.2-.2L39,51.2Z"/><path class="cls-3" d="M50.2,40.1l-.2-.3.9-.6L46,32.9l-.8.7-.2-.3,2.8-2.2.2.3-.9.7,4.8,6.2,1.5-1.1a2.4,2.4,0,0,0,.9-1.2,4.5,4.5,0,0,0-.4-1.8l.2-.2,1.3,2Z"/><path class="cls-3" d="M60.4,32.6l-.2-.3,1-.5L59.6,23l.3-.2,6.6,6,.8-.5.2.3-3,1.7V30l.9-.6-2.1-1.9L61,28.8l.5,2.8,1-.5.2.2Zm.5-4.2,2-1.2-2.6-2.4Z"/><path class="cls-3" d="M73.9,25.7v-.3l1.1-.4L72,17.6h-.4a1.9,1.9,0,0,0-1.2.9,5.8,5.8,0,0,0,0,1.9h-.3l-.8-2.4,6.4-2.4,1,2.2h-.3a3.1,3.1,0,0,0-1.2-1.3,2.2,2.2,0,0,0-1.6.1h-.4l2.9,7.3,1-.4v.3Z"/><path class="cls-3" d="M86.2,21.6v-.3l1.1-.2-1.7-7.7H85a1.8,1.8,0,0,0-1.2.7,2.6,2.6,0,0,0-.3,1.9h-.3l-.5-2.4,6.7-1.5.6,2.4h-.3a3.6,3.6,0,0,0-1-1.5,2.7,2.7,0,0,0-1.6-.1h-.3l1.7,7.7,1.1-.2v.3Z"/><path class="cls-3" d="M97.6,19.6v-.4h1L98,11.3H97V11l6.5-.4.2,2h-.3a2.3,2.3,0,0,0-.7-1.3,2.7,2.7,0,0,0-1.7-.2H99.4l.2,3.6h.3a2.4,2.4,0,0,0,1.2-.4,1.6,1.6,0,0,0,.3-1.1h.3l.2,3.2h-.3a1.3,1.3,0,0,0-.5-1.1,2.4,2.4,0,0,0-1.4-.3h-.1l.3,4,1.9-.2a2.1,2.1,0,0,0,1.5-.5,2.5,2.5,0,0,0,.7-1.7h.3v2.4Z"/><path class="cls-3" d="M120.2,20.1v-.3l.9.2,1.6-7.8-1-.2v-.3l3.3.7a5,5,0,0,1,2.2.9,1.9,1.9,0,0,1,.5,1.6,1.5,1.5,0,0,1-.8,1.2,3.1,3.1,0,0,1-1.7.4h0a5,5,0,0,1,1.6,1.1,2.1,2.1,0,0,1,.3,1.5,1.9,1.9,0,0,1-1.2,1.6,4.6,4.6,0,0,1-2.6,0Zm3.1-3.8-.8,3.9,1.1.3c.8.1,1.3.1,1.6-.2s.5-.6.7-1.4a2.6,2.6,0,0,0-.1-1.6,2.2,2.2,0,0,0-1.5-.8Zm0-.3,1,.2a2.7,2.7,0,0,0,1.6-.1,2,2,0,0,0,.6-1.4,1.6,1.6,0,0,0-.1-1.4,2,2,0,0,0-1.4-.6l-.9-.2Z"/><path class="cls-3" d="M137,24.8a2.9,2.9,0,0,1-1.3-.8,3.2,3.2,0,0,1-.8-1.4,2.9,2.9,0,0,1-.2-1.6,4.7,4.7,0,0,1,.3-1.7,4.6,4.6,0,0,1,.9-1.5,4,4,0,0,1,1.2-1,3.6,3.6,0,0,1,3.1-.3,3.6,3.6,0,0,1,1.2.8,5.7,5.7,0,0,1,.8,1.3,4.7,4.7,0,0,1,.3,1.7,3.5,3.5,0,0,1-.4,1.7,8,8,0,0,1-.8,1.6,4.1,4.1,0,0,1-1.3,1,3,3,0,0,1-1.5.5A2.9,2.9,0,0,1,137,24.8Zm3-8a1.8,1.8,0,0,0-2,.3,11.3,11.3,0,0,0-1.8,3.3,5.7,5.7,0,0,0-.4,2.7,1.9,1.9,0,0,0,1.3,1.4,2,2,0,0,0,2-.2,5.3,5.3,0,0,0,1.4-2.3,10,10,0,0,0,.9-3.6A1.9,1.9,0,0,0,140,16.8Z"/><path class="cls-3" d="M148.7,27.5l3-5.2-.9-.6.2-.2,2.8,1.6v.3l-.9-.5-3,5.2a2.1,2.1,0,0,0-.3,1.5,1.8,1.8,0,0,0,.9,1.2,2.1,2.1,0,0,0,1.7.2,2.9,2.9,0,0,0,1.4-1.3l2.8-4.8-.9-.5.2-.3,2.1,1.2-.2.3-.9-.5-2.7,4.8a2.9,2.9,0,0,1-1.8,1.5,2.7,2.7,0,0,1-2.2-.5,2.7,2.7,0,0,1-1.5-1.5A2.2,2.2,0,0,1,148.7,27.5Z"/><path class="cls-3" d="M159.9,37.4l.2-.3.9.7,4.9-6.2a.1.1,0,0,1-.1-.1c-.1,0-.1-.1-.2-.2a3,3,0,0,0-1.4-.5,4.4,4.4,0,0,0-1.6.9l-.3-.2,1.7-1.8,5.3,4.2-1.5,2-.2-.2a2.5,2.5,0,0,0,.5-1.7,1.7,1.7,0,0,0-.8-1.3c-.1-.1-.2-.1-.2-.2h-.2L162,38.6l.9.7-.2.3Z"/><path class="cls-3" d="M168.6,44.9l.2-.2.8.8,5.6-5.6-.7-.8.2-.2,2.5,2.6-.2.2-.8-.8-5.7,5.5.8.8-.2.3Z"/><path class="cls-3" d="M177.6,59.4l-.2.2-.2-.3a3.9,3.9,0,0,1-1.1-2.4,2.1,2.1,0,0,1,1-1.8h.1a3.6,3.6,0,0,1-.1-2.7,5.1,5.1,0,0,1,1.8-2.4,4,4,0,0,1,1.6-.8,3,3,0,0,1,1.6-.2,3.3,3.3,0,0,1,1.5.4,2.4,2.4,0,0,1,1.1.9,3.1,3.1,0,0,1,.7,1.4,4.3,4.3,0,0,1,0,1.6,10.1,10.1,0,0,1-.7,1.5,4.9,4.9,0,0,1-1.2,1.3,4.4,4.4,0,0,1-2.8,1,3.3,3.3,0,0,1-2.6-.8h-.2a2.5,2.5,0,0,0-1,1.4,2.5,2.5,0,0,0,.7,1.6Zm6.9-8.9a1.9,1.9,0,0,0-1.9-.9,11,11,0,0,0-3.1,1.7,4.8,4.8,0,0,0-1.8,2.2,1.7,1.7,0,0,0,.3,1.9,1.7,1.7,0,0,0,1.7.8,4.2,4.2,0,0,0,2.4-1.1,9.4,9.4,0,0,0,2.7-2.6A1.8,1.8,0,0,0,184.5,50.5Z"/><path class="cls-3" d="M186.1,64l5.4-2.8-.5-.9.3-.2,1.5,2.9-.2.2-.5-.9-5.3,2.8a2.1,2.1,0,0,0-1.1,1.2,1.5,1.5,0,0,0,.2,1.4,2,2,0,0,0,1.3,1.1,2.3,2.3,0,0,0,1.9-.4l4.9-2.6-.5-.9h.3l1.1,2.1-.3.2-.4-.9-4.9,2.6a2.9,2.9,0,0,1-2.3.4,3.2,3.2,0,0,1-1.7-1.6,3.3,3.3,0,0,1-.4-2.1A2.9,2.9,0,0,1,186.1,64Z"/><path class="cls-3" d="M190.1,77.1l.3-.2.4,1,7.4-2.7-.4-1h.3l2.3,6.2-1.9.7v-.3a2.4,2.4,0,0,0,1-1,2.7,2.7,0,0,0-.2-1.7l-.6-1.6-3.4,1.3v.2A2.6,2.6,0,0,0,196,79h1.2v.3l-3.1,1.1v-.3a1.4,1.4,0,0,0,1-.8,2.3,2.3,0,0,0-.1-1.4h-.1l-3.7,1.3.7,1.8a1.9,1.9,0,0,0,.9,1.3,2.7,2.7,0,0,0,1.9.2v.3l-2.4.7Z"/><path class="cls-3" d="M39.5,171.3h.1l-1.1,1.1h-.2V172c-.2-.1-.5-.1-.7-.3l-.7-.5a3.2,3.2,0,0,1-.8-2,3.1,3.1,0,0,1,1.1-2.1l1-.7a2,2,0,0,1,1.1-.3l1.1.2a3.3,3.3,0,0,1,1,.6l.5.6.2.8h.5l-1.1,1.1v-.2a1.8,1.8,0,0,0,.3-1.2,1.4,1.4,0,0,0-.5-1,1.3,1.3,0,0,0-1.4-.5,8.2,8.2,0,0,0-2,1.4l-.8.9a1.3,1.3,0,0,0-.3.7.8.8,0,0,0,0,.7,1.6,1.6,0,0,0,.4.7,2.4,2.4,0,0,0,1.1.6Z"/><path class="cls-3" d="M44.7,178.4l-.7-.9a2,2,0,0,1-.2-1.1,2.5,2.5,0,0,1,.2-1.2,2.7,2.7,0,0,1,.6-1,2.8,2.8,0,0,1,.9-.7l1-.4h1.2a2.1,2.1,0,0,1,1,.6,2.7,2.7,0,0,1,.7.8,3.6,3.6,0,0,1,.2,1.1,4.9,4.9,0,0,1-.1,1.2,6.1,6.1,0,0,1-.7,1,2.4,2.4,0,0,1-.9.8l-1.1.4a2.1,2.1,0,0,1-1.1-.1Zm3.9-4.6a1.4,1.4,0,0,0-1.5-.3,6.5,6.5,0,0,0-1.9,1.7,3.5,3.5,0,0,0-.9,1.7,1.7,1.7,0,0,0,1.9,1.7,5.1,5.1,0,0,0,1.6-1.2,6,6,0,0,0,1.3-2.2A1.6,1.6,0,0,0,48.6,173.8Z"/><path class="cls-3" d="M51.4,183.4v-.2l.6.4,3.1-4.5-.6-.4v-.2l4,2.7-.9,1.3h-.2a1.3,1.3,0,0,0,.3-1.1,2.6,2.6,0,0,0-.9-1l-1-.6-1.4,2.1h0a1.6,1.6,0,0,0,.9.4,1.5,1.5,0,0,0,.7-.5l.2.2-1.3,1.8h-.2c.2-.4.3-.6.2-.9s-.2-.4-.5-.6h-.2l-1.5,2.2.7.4-.2.2Z"/><path class="cls-3" d="M59.8,188.8v-.2l.7.4,2.6-4.8-.7-.3.2-.2,4.2,2.3-.8,1.3h-.2a1.5,1.5,0,0,0,.2-1.1,2.1,2.1,0,0,0-1-.8l-1.1-.6-1.2,2.2h.1a1.3,1.3,0,0,0,.9.3c.2,0,.4-.2.6-.5h.2l-1,2h-.2c.1-.4.2-.7.1-.9a1.7,1.7,0,0,0-.6-.6h-.2l-1.3,2.4.7.3v.2Z"/><path class="cls-3" d="M68.8,193.4v-.2l.6.3,2.1-5-.6-.3V188l4.4,1.8-.6,1.3h-.2a2,2,0,0,0,0-1.1,2.9,2.9,0,0,0-1-.7l-1.2-.5-.9,2.4h.2a1.5,1.5,0,0,0,.9.2,1,1,0,0,0,.5-.6h.2l-.8,2.1h-.2a1.4,1.4,0,0,0,0-.9,1.7,1.7,0,0,0-.9-.6h0l-1.1,2.5,1.3.5a1.9,1.9,0,0,0,1.2.2,2.6,2.6,0,0,0,1-.9h.2l-.8,1.5Z"/><path class="cls-3" d="M78.7,197.2V197l.7.2L81,192l-.7-.2v-.2l4.6,1.3-.4,1.4h-.2c0-.5,0-.8-.2-1a1.5,1.5,0,0,0-1.1-.6l-1.2-.3-.7,2.4h1.1c.3-.1.4-.3.6-.6H83l-.6,2.1h-.2c.1-.4.1-.7-.1-.9a1.3,1.3,0,0,0-.9-.5h0l-.8,2.6,1.3.4H83c.3-.1.5-.4.8-.9H84l-.5,1.6Z"/><path class="cls-3" d="M96.1,201H96v-1.5h.2a2.4,2.4,0,0,0,.6,1.1,2.2,2.2,0,0,0,1.1.5,2.1,2.1,0,0,0,1.2-.3,1.8,1.8,0,0,0,.6-.9c0-.5-.4-.9-1.4-1.3h-.1a3.7,3.7,0,0,1-1.6-.9,2,2,0,0,1-.3-1.1,1.4,1.4,0,0,1,.6-1.1,1.7,1.7,0,0,1,1.4-.3,1.9,1.9,0,0,1,1.2.4h.2l.2-.2h.2v1.4h-.2a1.4,1.4,0,0,0-.6-1,1.3,1.3,0,0,0-1-.4,1.2,1.2,0,0,0-1,.2.8.8,0,0,0-.4.7.7.7,0,0,0,.2.6l.9.5h.3a3.8,3.8,0,0,1,1.4.6l.5.6a2.2,2.2,0,0,1,.1.8,1.8,1.8,0,0,1-.8,1.4,2.7,2.7,0,0,1-1.6.4,2.9,2.9,0,0,1-1.3-.5h-.1c0,.1,0,.1-.1.1Z"/><path class="cls-3" d="M105.5,201.7v-.2h.7V196h-.7v-.2h2.4v.3h-.7v2.5h2.8v-2.5h-.7v-.2h2.5v.2h-.7v5.5h.8v.2h-2.5v-.2h.7v-2.7h-2.8v2.7h.7v.2Z"/><path class="cls-3" d="M120.1,201h-1.2a2.1,2.1,0,0,1-1-.6,3.1,3.1,0,0,1-.7-.9,2.7,2.7,0,0,1-.3-1.2,2,2,0,0,1,0-1.1,3,3,0,0,1,.4-1,3.8,3.8,0,0,1,.9-.9l1-.4h1.1l1,.5a3.6,3.6,0,0,1,.7,1,2.1,2.1,0,0,1,.4,1.1,4.8,4.8,0,0,1,0,1.2,3.7,3.7,0,0,1-.5,1.1,2,2,0,0,1-.8.8Zm-.8-5.9a1.2,1.2,0,0,0-1.2.8,6.7,6.7,0,0,0-.1,2.6,3.8,3.8,0,0,0,.7,1.8,1.2,1.2,0,0,0,1.3.4,1.2,1.2,0,0,0,1.2-.8,3.4,3.4,0,0,0,.2-1.9,4.7,4.7,0,0,0-.8-2.4A1.1,1.1,0,0,0,119.3,195.1Z"/><path class="cls-3" d="M128.2,199.4v-.3h.7l-1.4-5.3h-.7v-.2l2.2-.5a5,5,0,0,1,2-.2,1.3,1.3,0,0,1,.9,1,1.5,1.5,0,0,1-.4,1.4,4.8,4.8,0,0,1-1.9,1h-.4l.6,2.3.8-.2v.3Zm1-3.3h.4a1.7,1.7,0,0,0,1.2-.6,1.6,1.6,0,0,0,.1-1.2,1.4,1.4,0,0,0-.6-1,2.4,2.4,0,0,0-1.4.1h-.4Z"/><path class="cls-3" d="M147.8,192l-.6.8-.8.5a2,2,0,0,1-1.5.2,1.3,1.3,0,0,1-1-.9,1.9,1.9,0,0,1-.1-1.3,3.8,3.8,0,0,1,.9-1.3l-.4-.3-.3-.3-.3-.3a1.2,1.2,0,0,1,.1-1c.1-.3.4-.5.8-.7a1.5,1.5,0,0,1,1.1-.2c.3.1.5.2.6.5a.6.6,0,0,1,0,.8,3,3,0,0,1-.7,1l2.4,1.4a1.6,1.6,0,0,0,.1-1,5,5,0,0,0-.2-1.2l-.8.4v-.2l1.7-.8v.2l-.7.3a3.5,3.5,0,0,1,.3,1.3,5,5,0,0,1-.2,1.2l.9.6.8-.4v.2l-1.6.8Zm-2.4-2.6a1.3,1.3,0,0,0,.4-.7.9.9,0,0,0-.1-.7,1.1,1.1,0,0,0-.4-.5h-.7l-.4.4a.4.4,0,0,0,0,.5l.2.2a.2.2,0,0,0,.2.2Zm-.5.7a2.1,2.1,0,0,0-.6.8,1.2,1.2,0,0,0,.1.8l.4.5.6.5.7.2h.6a1,1,0,0,0,.5-.4.9.9,0,0,0,.4-.6Z"/><path class="cls-3" d="M161,185h-.2l.6-.4-3.1-4.5-.6.4-.2-.2,2.1-1.4a3.1,3.1,0,0,1,1.6-.7,1,1,0,0,1,1,.5,1.2,1.2,0,0,1,.2,1,2,2,0,0,1-.7,1h.1a2.4,2.4,0,0,1,1.3-.4c.5.1.8.2,1,.5a1.4,1.4,0,0,1,.1,1.4,3.1,3.1,0,0,1-1.2,1.4Zm-.5-3.5.6-.5a2.3,2.3,0,0,0,.7-.8,1.6,1.6,0,0,0-.4-1,1,1,0,0,0-.7-.6,2.1,2.1,0,0,0-1.1.4l-.6.4Zm.1.1,1.6,2.3.7-.5c.4-.3.7-.6.7-.9a1.1,1.1,0,0,0-.3-1,1.5,1.5,0,0,0-1-.7c-.3-.1-.6.1-1.1.4Z"/><path class="cls-3" d="M169.2,178.9h-.1l.5-.5-2.1-5.9.2-.2,5.3,3.1.5-.4h.2l-1.9,1.6h-.1l.6-.5-1.7-1.1-1.5,1.3.8,1.8.6-.5v.2Zm-.2-3,1.3-1.1-2.1-1.3Z"/><path class="cls-3" d="M177.2,171.3l.6-.5-4-3.8-.5.5h-.2l1.9-2a3.7,3.7,0,0,1,1.4-1,1.1,1.1,0,0,1,1.1.3,1.2,1.2,0,0,1,.4,1,3.7,3.7,0,0,1-.7,1.4h0a2.1,2.1,0,0,1,1.2-.5,1,1,0,0,1,.9.2l.6.4c.2.3.4.4.5.4h.3l.3-.2v-.2a.4.4,0,0,0,.1-.3l.2.2c-.1.2-.1.3-.2.4l-.3.4a.8.8,0,0,1-.9.3,1.9,1.9,0,0,1-1.3-.7h0a1.6,1.6,0,0,0-.9-.4h-.6l-.5.4-.4.4,2.1,2,.5-.6.2.2-1.7,1.8Zm-1-3.4.4-.4c.4-.5.7-.8.7-1.1a1.1,1.1,0,0,0-.5-.9c-.3-.3-.6-.5-.8-.4s-.6.2-1,.6l-.5.6Z"/></g></g></svg>